<mxfile host="app.diagrams.net" agent="Mozilla/5.0 (Windows NT 10.0; Win64; x64) AppleWebKit/537.36 (KHTML, like Gecko) Chrome/127.0.0.0 Safari/537.36" version="24.7.6">
  <diagram name="Page-1" id="90a13364-a465-7bf4-72fc-28e22215d7a0">
    <mxGraphModel dx="1888" dy="844" grid="1" gridSize="10" guides="1" tooltips="1" connect="1" arrows="1" fold="1" page="1" pageScale="1.5" pageWidth="1169" pageHeight="826" background="none" math="0" shadow="0">
      <root>
        <mxCell id="0" style=";html=1;" />
        <mxCell id="1" style=";html=1;" parent="0" />
        <mxCell id="zEn0z_GX0w1xsFIlv62b-1" value="User" style="swimlane;" vertex="1" parent="1">
          <mxGeometry x="90" y="180" width="290" height="490" as="geometry" />
        </mxCell>
        <mxCell id="zEn0z_GX0w1xsFIlv62b-22" style="edgeStyle=orthogonalEdgeStyle;rounded=0;orthogonalLoop=1;jettySize=auto;html=1;exitX=0.5;exitY=0.5;exitDx=0;exitDy=0;exitPerimeter=0;entryX=0;entryY=0.5;entryDx=0;entryDy=0;" edge="1" parent="zEn0z_GX0w1xsFIlv62b-1" source="zEn0z_GX0w1xsFIlv62b-14" target="zEn0z_GX0w1xsFIlv62b-15">
          <mxGeometry relative="1" as="geometry" />
        </mxCell>
        <mxCell id="zEn0z_GX0w1xsFIlv62b-14" value="User" style="shape=umlActor;verticalLabelPosition=bottom;verticalAlign=top;html=1;outlineConnect=0;" vertex="1" parent="zEn0z_GX0w1xsFIlv62b-1">
          <mxGeometry x="40" y="70" width="50" height="82" as="geometry" />
        </mxCell>
        <mxCell id="zEn0z_GX0w1xsFIlv62b-15" value="Web&amp;nbsp;&lt;div&gt;Client&lt;/div&gt;" style="whiteSpace=wrap;html=1;shadow=1;fontSize=18;fillColor=#f5f5f5;strokeColor=#666666;" vertex="1" parent="zEn0z_GX0w1xsFIlv62b-1">
          <mxGeometry x="160" y="36" width="120" height="150" as="geometry" />
        </mxCell>
        <mxCell id="zEn0z_GX0w1xsFIlv62b-17" value="FP" style="whiteSpace=wrap;html=1;shadow=1;fontSize=18;fillColor=#f5f5f5;strokeColor=#666666;" vertex="1" parent="zEn0z_GX0w1xsFIlv62b-1">
          <mxGeometry x="40" y="236" width="120" height="60" as="geometry" />
        </mxCell>
        <mxCell id="zEn0z_GX0w1xsFIlv62b-18" value="FR" style="whiteSpace=wrap;html=1;shadow=1;fontSize=18;fillColor=#f5f5f5;strokeColor=#666666;" vertex="1" parent="zEn0z_GX0w1xsFIlv62b-1">
          <mxGeometry x="40" y="318" width="120" height="60" as="geometry" />
        </mxCell>
        <mxCell id="zEn0z_GX0w1xsFIlv62b-19" value="FC" style="whiteSpace=wrap;html=1;shadow=1;fontSize=20;fillColor=#f5f5f5;strokeColor=#666666;strokeWidth=2;dashed=1;" vertex="1" parent="zEn0z_GX0w1xsFIlv62b-1">
          <mxGeometry x="40" y="406" width="120" height="62" as="geometry" />
        </mxCell>
        <mxCell id="zEn0z_GX0w1xsFIlv62b-2" value="Server" style="swimlane;" vertex="1" parent="1">
          <mxGeometry x="510" y="172" width="320" height="498" as="geometry" />
        </mxCell>
        <mxCell id="zEn0z_GX0w1xsFIlv62b-20" value="&lt;span style=&quot;font-size: 18px;&quot;&gt;DB&lt;/span&gt;" style="shape=cylinder3;whiteSpace=wrap;html=1;boundedLbl=1;backgroundOutline=1;size=15;" vertex="1" parent="zEn0z_GX0w1xsFIlv62b-2">
          <mxGeometry x="80" y="274" width="100" height="132" as="geometry" />
        </mxCell>
        <mxCell id="zEn0z_GX0w1xsFIlv62b-21" value="Web&lt;div&gt;Server&lt;/div&gt;" style="whiteSpace=wrap;html=1;shadow=1;fontSize=18;fillColor=#f5f5f5;strokeColor=#666666;" vertex="1" parent="zEn0z_GX0w1xsFIlv62b-2">
          <mxGeometry x="70" y="38" width="170" height="162" as="geometry" />
        </mxCell>
        <mxCell id="zEn0z_GX0w1xsFIlv62b-25" value="comn&lt;div&gt;consol&lt;/div&gt;" style="whiteSpace=wrap;html=1;shadow=1;fontSize=18;fillColor=#f5f5f5;strokeColor=#666666;" vertex="1" parent="zEn0z_GX0w1xsFIlv62b-2">
          <mxGeometry x="-30" y="220" width="90" height="240" as="geometry" />
        </mxCell>
        <mxCell id="zEn0z_GX0w1xsFIlv62b-32" value="Table" style="shape=table;startSize=30;container=1;collapsible=0;childLayout=tableLayout;strokeColor=default;fontSize=16;" vertex="1" parent="zEn0z_GX0w1xsFIlv62b-2">
          <mxGeometry x="140" y="356" width="60" height="50" as="geometry" />
        </mxCell>
        <mxCell id="zEn0z_GX0w1xsFIlv62b-33" value="" style="shape=tableRow;horizontal=0;startSize=0;swimlaneHead=0;swimlaneBody=0;strokeColor=inherit;top=0;left=0;bottom=0;right=0;collapsible=0;dropTarget=0;fillColor=none;points=[[0,0.5],[1,0.5]];portConstraint=eastwest;fontSize=16;" vertex="1" parent="zEn0z_GX0w1xsFIlv62b-32">
          <mxGeometry y="30" width="60" height="7" as="geometry" />
        </mxCell>
        <mxCell id="zEn0z_GX0w1xsFIlv62b-34" value="" style="shape=partialRectangle;html=1;whiteSpace=wrap;connectable=0;strokeColor=inherit;overflow=hidden;fillColor=none;top=0;left=0;bottom=0;right=0;pointerEvents=1;fontSize=16;" vertex="1" parent="zEn0z_GX0w1xsFIlv62b-33">
          <mxGeometry width="20" height="7" as="geometry">
            <mxRectangle width="20" height="7" as="alternateBounds" />
          </mxGeometry>
        </mxCell>
        <mxCell id="zEn0z_GX0w1xsFIlv62b-35" value="" style="shape=partialRectangle;html=1;whiteSpace=wrap;connectable=0;strokeColor=inherit;overflow=hidden;fillColor=none;top=0;left=0;bottom=0;right=0;pointerEvents=1;fontSize=16;" vertex="1" parent="zEn0z_GX0w1xsFIlv62b-33">
          <mxGeometry x="20" width="20" height="7" as="geometry">
            <mxRectangle width="20" height="7" as="alternateBounds" />
          </mxGeometry>
        </mxCell>
        <mxCell id="zEn0z_GX0w1xsFIlv62b-36" value="" style="shape=partialRectangle;html=1;whiteSpace=wrap;connectable=0;strokeColor=inherit;overflow=hidden;fillColor=none;top=0;left=0;bottom=0;right=0;pointerEvents=1;fontSize=16;" vertex="1" parent="zEn0z_GX0w1xsFIlv62b-33">
          <mxGeometry x="40" width="20" height="7" as="geometry">
            <mxRectangle width="20" height="7" as="alternateBounds" />
          </mxGeometry>
        </mxCell>
        <mxCell id="zEn0z_GX0w1xsFIlv62b-37" value="" style="shape=tableRow;horizontal=0;startSize=0;swimlaneHead=0;swimlaneBody=0;strokeColor=inherit;top=0;left=0;bottom=0;right=0;collapsible=0;dropTarget=0;fillColor=none;points=[[0,0.5],[1,0.5]];portConstraint=eastwest;fontSize=16;" vertex="1" parent="zEn0z_GX0w1xsFIlv62b-32">
          <mxGeometry y="37" width="60" height="6" as="geometry" />
        </mxCell>
        <mxCell id="zEn0z_GX0w1xsFIlv62b-38" value="" style="shape=partialRectangle;html=1;whiteSpace=wrap;connectable=0;strokeColor=inherit;overflow=hidden;fillColor=none;top=0;left=0;bottom=0;right=0;pointerEvents=1;fontSize=16;" vertex="1" parent="zEn0z_GX0w1xsFIlv62b-37">
          <mxGeometry width="20" height="6" as="geometry">
            <mxRectangle width="20" height="6" as="alternateBounds" />
          </mxGeometry>
        </mxCell>
        <mxCell id="zEn0z_GX0w1xsFIlv62b-39" value="" style="shape=partialRectangle;html=1;whiteSpace=wrap;connectable=0;strokeColor=inherit;overflow=hidden;fillColor=none;top=0;left=0;bottom=0;right=0;pointerEvents=1;fontSize=16;" vertex="1" parent="zEn0z_GX0w1xsFIlv62b-37">
          <mxGeometry x="20" width="20" height="6" as="geometry">
            <mxRectangle width="20" height="6" as="alternateBounds" />
          </mxGeometry>
        </mxCell>
        <mxCell id="zEn0z_GX0w1xsFIlv62b-40" value="" style="shape=partialRectangle;html=1;whiteSpace=wrap;connectable=0;strokeColor=inherit;overflow=hidden;fillColor=none;top=0;left=0;bottom=0;right=0;pointerEvents=1;fontSize=16;" vertex="1" parent="zEn0z_GX0w1xsFIlv62b-37">
          <mxGeometry x="40" width="20" height="6" as="geometry">
            <mxRectangle width="20" height="6" as="alternateBounds" />
          </mxGeometry>
        </mxCell>
        <mxCell id="zEn0z_GX0w1xsFIlv62b-41" value="" style="shape=tableRow;horizontal=0;startSize=0;swimlaneHead=0;swimlaneBody=0;strokeColor=inherit;top=0;left=0;bottom=0;right=0;collapsible=0;dropTarget=0;fillColor=none;points=[[0,0.5],[1,0.5]];portConstraint=eastwest;fontSize=16;" vertex="1" parent="zEn0z_GX0w1xsFIlv62b-32">
          <mxGeometry y="43" width="60" height="7" as="geometry" />
        </mxCell>
        <mxCell id="zEn0z_GX0w1xsFIlv62b-42" value="" style="shape=partialRectangle;html=1;whiteSpace=wrap;connectable=0;strokeColor=inherit;overflow=hidden;fillColor=none;top=0;left=0;bottom=0;right=0;pointerEvents=1;fontSize=16;" vertex="1" parent="zEn0z_GX0w1xsFIlv62b-41">
          <mxGeometry width="20" height="7" as="geometry">
            <mxRectangle width="20" height="7" as="alternateBounds" />
          </mxGeometry>
        </mxCell>
        <mxCell id="zEn0z_GX0w1xsFIlv62b-43" value="" style="shape=partialRectangle;html=1;whiteSpace=wrap;connectable=0;strokeColor=inherit;overflow=hidden;fillColor=none;top=0;left=0;bottom=0;right=0;pointerEvents=1;fontSize=16;" vertex="1" parent="zEn0z_GX0w1xsFIlv62b-41">
          <mxGeometry x="20" width="20" height="7" as="geometry">
            <mxRectangle width="20" height="7" as="alternateBounds" />
          </mxGeometry>
        </mxCell>
        <mxCell id="zEn0z_GX0w1xsFIlv62b-44" value="" style="shape=partialRectangle;html=1;whiteSpace=wrap;connectable=0;strokeColor=inherit;overflow=hidden;fillColor=none;top=0;left=0;bottom=0;right=0;pointerEvents=1;fontSize=16;" vertex="1" parent="zEn0z_GX0w1xsFIlv62b-41">
          <mxGeometry x="40" width="20" height="7" as="geometry">
            <mxRectangle width="20" height="7" as="alternateBounds" />
          </mxGeometry>
        </mxCell>
        <mxCell id="zEn0z_GX0w1xsFIlv62b-49" value="" style="endArrow=classic;startArrow=classic;html=1;rounded=0;entryX=0.824;entryY=0.988;entryDx=0;entryDy=0;entryPerimeter=0;exitX=1.008;exitY=0.406;exitDx=0;exitDy=0;exitPerimeter=0;" edge="1" parent="zEn0z_GX0w1xsFIlv62b-2" source="zEn0z_GX0w1xsFIlv62b-20" target="zEn0z_GX0w1xsFIlv62b-21">
          <mxGeometry width="50" height="50" relative="1" as="geometry">
            <mxPoint x="90" y="348" as="sourcePoint" />
            <mxPoint x="140" y="298" as="targetPoint" />
            <Array as="points">
              <mxPoint x="210" y="328" />
            </Array>
          </mxGeometry>
        </mxCell>
        <mxCell id="zEn0z_GX0w1xsFIlv62b-60" style="edgeStyle=orthogonalEdgeStyle;rounded=0;orthogonalLoop=1;jettySize=auto;html=1;exitX=1;exitY=0.5;exitDx=0;exitDy=0;entryX=0;entryY=0.5;entryDx=0;entryDy=0;entryPerimeter=0;" edge="1" parent="zEn0z_GX0w1xsFIlv62b-2" source="zEn0z_GX0w1xsFIlv62b-25" target="zEn0z_GX0w1xsFIlv62b-20">
          <mxGeometry relative="1" as="geometry" />
        </mxCell>
        <mxCell id="zEn0z_GX0w1xsFIlv62b-3" value="On Site" style="swimlane;" vertex="1" parent="1">
          <mxGeometry x="940" y="172" width="370" height="498" as="geometry" />
        </mxCell>
        <mxCell id="zEn0z_GX0w1xsFIlv62b-10" value="Display App" style="whiteSpace=wrap;html=1;shadow=1;fontSize=18;fillColor=#f5f5f5;strokeColor=#666666;" vertex="1" parent="zEn0z_GX0w1xsFIlv62b-3">
          <mxGeometry x="60" y="78" width="150" height="252" as="geometry" />
        </mxCell>
        <mxCell id="zEn0z_GX0w1xsFIlv62b-11" value="FP" style="whiteSpace=wrap;html=1;shadow=1;fontSize=18;fillColor=#f5f5f5;strokeColor=#666666;" vertex="1" parent="zEn0z_GX0w1xsFIlv62b-3">
          <mxGeometry x="230" y="88" width="120" height="60" as="geometry" />
        </mxCell>
        <mxCell id="zEn0z_GX0w1xsFIlv62b-12" value="FR" style="whiteSpace=wrap;html=1;shadow=1;fontSize=18;fillColor=#f5f5f5;strokeColor=#666666;" vertex="1" parent="zEn0z_GX0w1xsFIlv62b-3">
          <mxGeometry x="230" y="170" width="120" height="60" as="geometry" />
        </mxCell>
        <mxCell id="zEn0z_GX0w1xsFIlv62b-13" value="FC" style="whiteSpace=wrap;html=1;shadow=1;fontSize=20;fillColor=#f5f5f5;strokeColor=#666666;strokeWidth=2;dashed=1;" vertex="1" parent="zEn0z_GX0w1xsFIlv62b-3">
          <mxGeometry x="230" y="258" width="120" height="62" as="geometry" />
        </mxCell>
        <mxCell id="zEn0z_GX0w1xsFIlv62b-59" value="" style="edgeStyle=orthogonalEdgeStyle;rounded=0;orthogonalLoop=1;jettySize=auto;html=1;" edge="1" parent="zEn0z_GX0w1xsFIlv62b-3" source="zEn0z_GX0w1xsFIlv62b-26" target="zEn0z_GX0w1xsFIlv62b-27">
          <mxGeometry relative="1" as="geometry" />
        </mxCell>
        <mxCell id="zEn0z_GX0w1xsFIlv62b-26" value="comn&lt;div&gt;consol&lt;/div&gt;" style="whiteSpace=wrap;html=1;shadow=1;fontSize=18;fillColor=#f5f5f5;strokeColor=#666666;" vertex="1" parent="zEn0z_GX0w1xsFIlv62b-3">
          <mxGeometry x="-173" y="238" width="90" height="240" as="geometry" />
        </mxCell>
        <mxCell id="zEn0z_GX0w1xsFIlv62b-27" value="comn&lt;div&gt;consol&lt;/div&gt;" style="whiteSpace=wrap;html=1;shadow=1;fontSize=18;fillColor=#f5f5f5;strokeColor=#666666;" vertex="1" parent="zEn0z_GX0w1xsFIlv62b-3">
          <mxGeometry x="-43" y="238" width="90" height="240" as="geometry" />
        </mxCell>
        <mxCell id="zEn0z_GX0w1xsFIlv62b-52" style="edgeStyle=orthogonalEdgeStyle;rounded=0;orthogonalLoop=1;jettySize=auto;html=1;entryX=0;entryY=0.357;entryDx=0;entryDy=0;entryPerimeter=0;exitX=0.25;exitY=0;exitDx=0;exitDy=0;" edge="1" parent="zEn0z_GX0w1xsFIlv62b-3" source="zEn0z_GX0w1xsFIlv62b-27" target="zEn0z_GX0w1xsFIlv62b-10">
          <mxGeometry relative="1" as="geometry" />
        </mxCell>
        <mxCell id="zEn0z_GX0w1xsFIlv62b-57" style="edgeStyle=orthogonalEdgeStyle;rounded=0;orthogonalLoop=1;jettySize=auto;html=1;exitX=0.5;exitY=1;exitDx=0;exitDy=0;entryX=1;entryY=0.75;entryDx=0;entryDy=0;" edge="1" parent="1" source="zEn0z_GX0w1xsFIlv62b-4" target="zEn0z_GX0w1xsFIlv62b-29">
          <mxGeometry relative="1" as="geometry" />
        </mxCell>
        <mxCell id="zEn0z_GX0w1xsFIlv62b-4" value="API" style="swimlane;" vertex="1" parent="1">
          <mxGeometry x="1444" y="206" width="310" height="430" as="geometry" />
        </mxCell>
        <mxCell id="zEn0z_GX0w1xsFIlv62b-6" value="관광 정보" style="whiteSpace=wrap;html=1;shadow=1;fontSize=18;fillColor=#f5f5f5;strokeColor=#666666;" vertex="1" parent="zEn0z_GX0w1xsFIlv62b-4">
          <mxGeometry x="95" y="65" width="120" height="60" as="geometry" />
        </mxCell>
        <mxCell id="zEn0z_GX0w1xsFIlv62b-7" value="날씨 정보" style="whiteSpace=wrap;html=1;shadow=1;fontSize=18;fillColor=#f5f5f5;strokeColor=#666666;" vertex="1" parent="zEn0z_GX0w1xsFIlv62b-4">
          <mxGeometry x="95" y="145" width="120" height="60" as="geometry" />
        </mxCell>
        <mxCell id="zEn0z_GX0w1xsFIlv62b-8" value="광고" style="whiteSpace=wrap;html=1;shadow=1;fontSize=18;fillColor=#f5f5f5;strokeColor=#666666;" vertex="1" parent="zEn0z_GX0w1xsFIlv62b-4">
          <mxGeometry x="95" y="225" width="120" height="60" as="geometry" />
        </mxCell>
        <mxCell id="zEn0z_GX0w1xsFIlv62b-9" value="교통상황" style="whiteSpace=wrap;html=1;shadow=1;fontSize=18;fillColor=#f5f5f5;strokeColor=#666666;" vertex="1" parent="zEn0z_GX0w1xsFIlv62b-4">
          <mxGeometry x="95" y="305" width="120" height="60" as="geometry" />
        </mxCell>
        <mxCell id="zEn0z_GX0w1xsFIlv62b-23" value="" style="endArrow=classic;startArrow=classic;html=1;rounded=0;exitX=1;exitY=0.5;exitDx=0;exitDy=0;entryX=0;entryY=0.5;entryDx=0;entryDy=0;" edge="1" parent="1" source="zEn0z_GX0w1xsFIlv62b-15" target="zEn0z_GX0w1xsFIlv62b-21">
          <mxGeometry width="50" height="50" relative="1" as="geometry">
            <mxPoint x="590" y="550" as="sourcePoint" />
            <mxPoint x="640" y="500" as="targetPoint" />
          </mxGeometry>
        </mxCell>
        <mxCell id="zEn0z_GX0w1xsFIlv62b-53" style="edgeStyle=orthogonalEdgeStyle;rounded=0;orthogonalLoop=1;jettySize=auto;html=1;entryX=0.5;entryY=1;entryDx=0;entryDy=0;" edge="1" parent="1" source="zEn0z_GX0w1xsFIlv62b-28" target="zEn0z_GX0w1xsFIlv62b-10">
          <mxGeometry relative="1" as="geometry" />
        </mxCell>
        <mxCell id="zEn0z_GX0w1xsFIlv62b-28" value="comn&lt;div&gt;consol&lt;/div&gt;" style="whiteSpace=wrap;html=1;shadow=1;fontSize=18;fillColor=#f5f5f5;strokeColor=#666666;" vertex="1" parent="1">
          <mxGeometry x="1270" y="510" width="90" height="240" as="geometry" />
        </mxCell>
        <mxCell id="zEn0z_GX0w1xsFIlv62b-29" value="comn&lt;div&gt;consol&lt;/div&gt;" style="whiteSpace=wrap;html=1;shadow=1;fontSize=18;fillColor=#f5f5f5;strokeColor=#666666;" vertex="1" parent="1">
          <mxGeometry x="1400" y="510" width="90" height="240" as="geometry" />
        </mxCell>
        <mxCell id="zEn0z_GX0w1xsFIlv62b-30" style="edgeStyle=orthogonalEdgeStyle;rounded=0;orthogonalLoop=1;jettySize=auto;html=1;entryX=0.5;entryY=1;entryDx=0;entryDy=0;exitX=0.5;exitY=1;exitDx=0;exitDy=0;" edge="1" parent="1" source="zEn0z_GX0w1xsFIlv62b-24" target="zEn0z_GX0w1xsFIlv62b-25">
          <mxGeometry relative="1" as="geometry">
            <Array as="points">
              <mxPoint x="380" y="648" />
              <mxPoint x="380" y="700" />
              <mxPoint x="525" y="700" />
            </Array>
          </mxGeometry>
        </mxCell>
        <mxCell id="zEn0z_GX0w1xsFIlv62b-31" value="&lt;font style=&quot;font-size: 14px;&quot;&gt;Vector&lt;/font&gt;" style="edgeLabel;html=1;align=center;verticalAlign=middle;resizable=0;points=[];" vertex="1" connectable="0" parent="zEn0z_GX0w1xsFIlv62b-30">
          <mxGeometry x="-0.2994" y="4" relative="1" as="geometry">
            <mxPoint x="30" y="24" as="offset" />
          </mxGeometry>
        </mxCell>
        <mxCell id="zEn0z_GX0w1xsFIlv62b-51" value="" style="edgeStyle=orthogonalEdgeStyle;rounded=0;orthogonalLoop=1;jettySize=auto;html=1;" edge="1" parent="1" source="zEn0z_GX0w1xsFIlv62b-32" target="zEn0z_GX0w1xsFIlv62b-26">
          <mxGeometry relative="1" as="geometry" />
        </mxCell>
        <mxCell id="zEn0z_GX0w1xsFIlv62b-24" value="comn&lt;div&gt;consol&lt;/div&gt;" style="whiteSpace=wrap;html=1;shadow=1;fontSize=18;fillColor=#f5f5f5;strokeColor=#666666;" vertex="1" parent="1">
          <mxGeometry x="340" y="408" width="90" height="240" as="geometry" />
        </mxCell>
        <mxCell id="zEn0z_GX0w1xsFIlv62b-45" style="edgeStyle=orthogonalEdgeStyle;rounded=0;orthogonalLoop=1;jettySize=auto;html=1;entryX=0.053;entryY=0.154;entryDx=0;entryDy=0;entryPerimeter=0;" edge="1" parent="1" source="zEn0z_GX0w1xsFIlv62b-17" target="zEn0z_GX0w1xsFIlv62b-24">
          <mxGeometry relative="1" as="geometry" />
        </mxCell>
        <mxCell id="zEn0z_GX0w1xsFIlv62b-46" value="" style="edgeStyle=orthogonalEdgeStyle;rounded=0;orthogonalLoop=1;jettySize=auto;html=1;" edge="1" parent="1" source="zEn0z_GX0w1xsFIlv62b-18" target="zEn0z_GX0w1xsFIlv62b-24">
          <mxGeometry relative="1" as="geometry" />
        </mxCell>
        <mxCell id="zEn0z_GX0w1xsFIlv62b-48" style="edgeStyle=orthogonalEdgeStyle;rounded=0;orthogonalLoop=1;jettySize=auto;html=1;entryX=0.011;entryY=0.875;entryDx=0;entryDy=0;entryPerimeter=0;" edge="1" parent="1" source="zEn0z_GX0w1xsFIlv62b-19" target="zEn0z_GX0w1xsFIlv62b-24">
          <mxGeometry relative="1" as="geometry" />
        </mxCell>
      </root>
    </mxGraphModel>
  </diagram>
</mxfile>
